<mxfile host="drawio-plugin" modified="2024-07-01T13:46:44.121Z" agent="5.0 (X11; Linux x86_64) AppleWebKit/537.36 (KHTML, like Gecko) Chrome/111.0.0.0 Safari/537.36" version="20.5.3" etag="islZf09dxm1lgZHhEhTG" type="embed"><diagram id="rSSXvlH1ooQ-Dp9trt0y" name="Page-1"><mxGraphModel dx="504" dy="1394" grid="1" gridSize="10" guides="1" tooltips="1" connect="1" arrows="1" fold="1" page="1" pageScale="1" pageWidth="850" pageHeight="1100" math="0" shadow="0"><root><mxCell id="0"/><mxCell id="1" parent="0"/><mxCell id="54" value="CPU BOUND + IO BOUND" style="rounded=0;whiteSpace=wrap;html=1;verticalAlign=top;" vertex="1" parent="1"><mxGeometry x="1380" y="60" width="490" height="640" as="geometry"/></mxCell><mxCell id="43" value="&lt;div style=&quot;background-color:#2b2b2b;color:#a9b7c6&quot;&gt;&lt;pre style=&quot;font-family:'JetBrains Mono',monospace;font-size:9.8pt;&quot;&gt;&lt;pre style=&quot;font-family:'JetBrains Mono',monospace;font-size:9.8pt;&quot;&gt;&lt;div&gt;&lt;pre style=&quot;font-family:'JetBrains Mono',monospace;font-size:9.8pt;&quot;&gt;CommitFlow&lt;/pre&gt;&lt;/div&gt;&lt;/pre&gt;&lt;/pre&gt;&lt;/div&gt;" style="rounded=0;whiteSpace=wrap;html=1;verticalAlign=top;" vertex="1" parent="1"><mxGeometry x="860" y="690" width="390" height="386.25" as="geometry"/></mxCell><mxCell id="8" value="&lt;div style=&quot;background-color:#2b2b2b;color:#a9b7c6&quot;&gt;&lt;pre style=&quot;font-family:'JetBrains Mono',monospace;font-size:9.8pt;&quot;&gt;&lt;div&gt;&lt;pre style=&quot;font-family:'JetBrains Mono',monospace;font-size:9.8pt;&quot;&gt;Manager&lt;/pre&gt;&lt;/div&gt;&lt;/pre&gt;&lt;/div&gt;" style="rounded=0;whiteSpace=wrap;html=1;verticalAlign=top;" vertex="1" parent="1"><mxGeometry x="860" y="-310" width="460" height="370" as="geometry"/></mxCell><mxCell id="6" value="&lt;div style=&quot;background-color:#2b2b2b;color:#a9b7c6&quot;&gt;&lt;pre style=&quot;font-family:'JetBrains Mono',monospace;font-size:9.8pt;&quot;&gt;ChangeStreamReader&lt;/pre&gt;&lt;/div&gt;" style="rounded=0;whiteSpace=wrap;html=1;verticalAlign=top;" vertex="1" parent="1"><mxGeometry x="450" y="140" width="390" height="420" as="geometry"/></mxCell><mxCell id="30" value="&lt;div style=&quot;background-color:#2b2b2b;color:#a9b7c6&quot;&gt;&lt;pre style=&quot;font-family:'JetBrains Mono',monospace;font-size:9.8pt;&quot;&gt;&lt;div&gt;&lt;pre style=&quot;font-family:'JetBrains Mono',monospace;font-size:9.8pt;&quot;&gt;ProducerFlow&lt;/pre&gt;&lt;/div&gt;&lt;/pre&gt;&lt;/div&gt;" style="rounded=0;whiteSpace=wrap;html=1;verticalAlign=top;" vertex="1" parent="1"><mxGeometry x="1420" y="100" width="390" height="330" as="geometry"/></mxCell><mxCell id="2" value="MongoDB" style="shape=cylinder3;whiteSpace=wrap;html=1;boundedLbl=1;backgroundOutline=1;size=15;horizontal=1;verticalAlign=top;" vertex="1" parent="1"><mxGeometry x="10" y="215.31" width="200" height="170" as="geometry"/></mxCell><mxCell id="7" style="edgeStyle=orthogonalEdgeStyle;rounded=0;orthogonalLoop=1;jettySize=auto;html=1;entryX=0;entryY=0.5;entryDx=0;entryDy=0;" edge="1" parent="1" source="3" target="6"><mxGeometry relative="1" as="geometry"/></mxCell><mxCell id="64" value="&lt;div style=&quot;background-color:#2b2b2b;color:#a9b7c6&quot;&gt;&lt;pre style=&quot;font-family:'JetBrains Mono',monospace;font-size:9.8pt;&quot;&gt;RawBSONDocument&lt;/pre&gt;&lt;/div&gt;" style="edgeLabel;html=1;align=center;verticalAlign=middle;resizable=0;points=[];" vertex="1" connectable="0" parent="7"><mxGeometry x="-0.2139" y="1" relative="1" as="geometry"><mxPoint as="offset"/></mxGeometry></mxCell><mxCell id="3" value="&lt;span style=&quot;&quot;&gt;MongoChangeStream&lt;/span&gt;" style="shape=cylinder3;whiteSpace=wrap;html=1;boundedLbl=1;backgroundOutline=1;size=15;rotation=90;horizontal=0;" vertex="1" parent="1"><mxGeometry x="90" y="264.69" width="40" height="175" as="geometry"/></mxCell><mxCell id="9" value="request_queue" style="shape=cylinder3;whiteSpace=wrap;html=1;boundedLbl=1;backgroundOutline=1;size=15;rotation=90;labelPosition=center;verticalLabelPosition=middle;align=center;verticalAlign=middle;direction=east;flipH=0;horizontal=0;" vertex="1" parent="1"><mxGeometry x="950" y="-310" width="40" height="175" as="geometry"/></mxCell><mxCell id="11" value="commit_queue" style="shape=cylinder3;whiteSpace=wrap;html=1;boundedLbl=1;backgroundOutline=1;size=15;rotation=90;labelPosition=center;verticalLabelPosition=middle;align=center;verticalAlign=middle;direction=east;flipH=0;horizontal=0;" vertex="1" parent="1"><mxGeometry x="1150" y="-310" width="40" height="175" as="geometry"/></mxCell><mxCell id="14" value="" style="rounded=0;whiteSpace=wrap;html=1;" vertex="1" parent="1"><mxGeometry x="880" y="-180" width="180" height="120" as="geometry"/></mxCell><mxCell id="15" value="producer_queue" style="shape=cylinder3;whiteSpace=wrap;html=1;boundedLbl=1;backgroundOutline=1;size=15;rotation=90;labelPosition=center;verticalLabelPosition=middle;align=center;verticalAlign=middle;direction=east;flipH=0;horizontal=0;" vertex="1" parent="1"><mxGeometry x="950" y="-240" width="40" height="175" as="geometry"/></mxCell><mxCell id="16" value="producer_queue" style="shape=cylinder3;whiteSpace=wrap;html=1;boundedLbl=1;backgroundOutline=1;size=15;rotation=90;labelPosition=center;verticalLabelPosition=middle;align=center;verticalAlign=middle;direction=east;flipH=0;horizontal=0;" vertex="1" parent="1"><mxGeometry x="950" y="-190" width="40" height="175" as="geometry"/></mxCell><mxCell id="17" value="" style="rounded=0;whiteSpace=wrap;html=1;" vertex="1" parent="1"><mxGeometry x="1090" y="-180" width="180" height="120" as="geometry"/></mxCell><mxCell id="18" value="response_queue" style="shape=cylinder3;whiteSpace=wrap;html=1;boundedLbl=1;backgroundOutline=1;size=15;rotation=90;labelPosition=center;verticalLabelPosition=middle;align=center;verticalAlign=middle;direction=east;flipH=0;horizontal=0;" vertex="1" parent="1"><mxGeometry x="1160" y="-240" width="40" height="175" as="geometry"/></mxCell><mxCell id="19" value="response_queue" style="shape=cylinder3;whiteSpace=wrap;html=1;boundedLbl=1;backgroundOutline=1;size=15;rotation=90;labelPosition=center;verticalLabelPosition=middle;align=center;verticalAlign=middle;direction=east;flipH=0;horizontal=0;" vertex="1" parent="1"><mxGeometry x="1160" y="-190" width="40" height="175" as="geometry"/></mxCell><mxCell id="20" value="stream_reader_name: str&lt;br&gt;processes: dict[taskId, Process]" style="rounded=0;whiteSpace=wrap;html=1;verticalAlign=top;align=left;" vertex="1" parent="1"><mxGeometry x="880" y="-40" width="190" height="90" as="geometry"/></mxCell><mxCell id="21" value="task_id: int&lt;br&gt;watcher = MongoClient.watch(last_token)&lt;br&gt;counter: int" style="rounded=0;whiteSpace=wrap;html=1;verticalAlign=top;align=left;" vertex="1" parent="1"><mxGeometry x="470" y="190" width="310" height="70" as="geometry"/></mxCell><mxCell id="22" value="" style="rounded=0;whiteSpace=wrap;html=1;" vertex="1" parent="1"><mxGeometry x="650" y="305" width="180" height="105" as="geometry"/></mxCell><mxCell id="37" style="edgeStyle=orthogonalEdgeStyle;rounded=0;orthogonalLoop=1;jettySize=auto;html=1;exitX=0.5;exitY=0;exitDx=0;exitDy=0;exitPerimeter=0;entryX=0.5;entryY=1;entryDx=0;entryDy=0;entryPerimeter=0;" edge="1" parent="1" source="23" target="32"><mxGeometry relative="1" as="geometry"/></mxCell><mxCell id="65" value="counter +&amp;nbsp;&lt;span style=&quot;color: rgb(169, 183, 198); font-family: &amp;quot;JetBrains Mono&amp;quot;, monospace; font-size: 9.8pt;&quot;&gt;RawBSONDocument&lt;/span&gt;&amp;nbsp;" style="edgeLabel;html=1;align=center;verticalAlign=middle;resizable=0;points=[];" vertex="1" connectable="0" parent="37"><mxGeometry x="-0.0683" y="3" relative="1" as="geometry"><mxPoint as="offset"/></mxGeometry></mxCell><mxCell id="23" value="producer_queue" style="shape=cylinder3;whiteSpace=wrap;html=1;boundedLbl=1;backgroundOutline=1;size=15;rotation=90;labelPosition=center;verticalLabelPosition=middle;align=center;verticalAlign=middle;direction=east;flipH=0;horizontal=0;" vertex="1" parent="1"><mxGeometry x="720" y="242.5" width="40" height="175" as="geometry"/></mxCell><mxCell id="24" value="producer_queue" style="shape=cylinder3;whiteSpace=wrap;html=1;boundedLbl=1;backgroundOutline=1;size=15;rotation=90;labelPosition=center;verticalLabelPosition=middle;align=center;verticalAlign=middle;direction=east;flipH=0;horizontal=0;" vertex="1" parent="1"><mxGeometry x="720" y="292.5" width="40" height="175" as="geometry"/></mxCell><mxCell id="25" value="request_queue" style="shape=cylinder3;whiteSpace=wrap;html=1;boundedLbl=1;backgroundOutline=1;size=15;rotation=90;labelPosition=center;verticalLabelPosition=middle;align=center;verticalAlign=middle;direction=east;flipH=0;horizontal=0;" vertex="1" parent="1"><mxGeometry x="530" y="375" width="40" height="175" as="geometry"/></mxCell><mxCell id="50" style="edgeStyle=orthogonalEdgeStyle;rounded=0;orthogonalLoop=1;jettySize=auto;html=1;exitX=0.5;exitY=0;exitDx=0;exitDy=0;exitPerimeter=0;entryX=0.5;entryY=0;entryDx=0;entryDy=0;entryPerimeter=0;" edge="1" parent="1" source="26" target="45"><mxGeometry relative="1" as="geometry"><Array as="points"><mxPoint x="1320" y="513"/><mxPoint x="1320" y="937"/></Array></mxGeometry></mxCell><mxCell id="66" value="counter + is_need_to _confirm + token" style="edgeLabel;html=1;align=center;verticalAlign=middle;resizable=0;points=[];" vertex="1" connectable="0" parent="50"><mxGeometry x="-0.6304" y="2" relative="1" as="geometry"><mxPoint as="offset"/></mxGeometry></mxCell><mxCell id="26" value="commit_queue" style="shape=cylinder3;whiteSpace=wrap;html=1;boundedLbl=1;backgroundOutline=1;size=15;rotation=90;labelPosition=center;verticalLabelPosition=middle;align=center;verticalAlign=middle;direction=east;flipH=0;horizontal=0;" vertex="1" parent="1"><mxGeometry x="730" y="425" width="40" height="175" as="geometry"/></mxCell><mxCell id="27" value="response_queue" style="shape=cylinder3;whiteSpace=wrap;html=1;boundedLbl=1;backgroundOutline=1;size=15;rotation=90;labelPosition=center;verticalLabelPosition=middle;align=center;verticalAlign=middle;direction=east;flipH=0;horizontal=0;" vertex="1" parent="1"><mxGeometry x="530" y="425" width="40" height="175" as="geometry"/></mxCell><mxCell id="68" style="edgeStyle=orthogonalEdgeStyle;rounded=0;orthogonalLoop=1;jettySize=auto;html=1;exitX=0.5;exitY=0;exitDx=0;exitDy=0;exitPerimeter=0;entryX=0.281;entryY=1.006;entryDx=0;entryDy=0;entryPerimeter=0;" edge="1" parent="1" source="28" target="6"><mxGeometry relative="1" as="geometry"/></mxCell><mxCell id="69" value="get last token" style="edgeLabel;html=1;align=center;verticalAlign=middle;resizable=0;points=[];" vertex="1" connectable="0" parent="68"><mxGeometry x="-0.0651" relative="1" as="geometry"><mxPoint y="-1" as="offset"/></mxGeometry></mxCell><mxCell id="28" value="TokenMongoDB&lt;br&gt;token_database&lt;br&gt;token_collection&lt;br&gt;&lt;br&gt;model: SavedToken" style="shape=cylinder3;whiteSpace=wrap;html=1;boundedLbl=1;backgroundOutline=1;size=15;horizontal=1;verticalAlign=top;" vertex="1" parent="1"><mxGeometry x="460" y="890" width="200" height="170" as="geometry"/></mxCell><mxCell id="31" value="task_id: int&lt;br&gt;kafka_client: Producer&lt;br&gt;admin_kafka: AdminClient" style="rounded=0;whiteSpace=wrap;html=1;verticalAlign=top;align=left;" vertex="1" parent="1"><mxGeometry x="1430" y="150" width="180" height="55" as="geometry"/></mxCell><mxCell id="41" style="edgeStyle=orthogonalEdgeStyle;rounded=0;orthogonalLoop=1;jettySize=auto;html=1;entryX=0.5;entryY=1;entryDx=0;entryDy=0;entryPerimeter=0;" edge="1" parent="1" source="32" target="40"><mxGeometry relative="1" as="geometry"/></mxCell><mxCell id="32" value="producer_queue" style="shape=cylinder3;whiteSpace=wrap;html=1;boundedLbl=1;backgroundOutline=1;size=15;rotation=90;labelPosition=center;verticalLabelPosition=middle;align=center;verticalAlign=middle;direction=east;flipH=0;horizontal=0;" vertex="1" parent="1"><mxGeometry x="1680" y="240" width="40" height="175" as="geometry"/></mxCell><mxCell id="47" style="edgeStyle=orthogonalEdgeStyle;rounded=0;orthogonalLoop=1;jettySize=auto;html=1;exitX=0.5;exitY=0;exitDx=0;exitDy=0;exitPerimeter=0;entryX=0.5;entryY=0;entryDx=0;entryDy=0;entryPerimeter=0;" edge="1" parent="1" source="34" target="45"><mxGeometry relative="1" as="geometry"><mxPoint x="1470" y="910.5" as="targetPoint"/><Array as="points"><mxPoint x="2000" y="388"/><mxPoint x="2000" y="938"/></Array></mxGeometry></mxCell><mxCell id="67" value="counter + 0" style="edgeLabel;html=1;align=center;verticalAlign=middle;resizable=0;points=[];" vertex="1" connectable="0" parent="47"><mxGeometry x="-0.8462" relative="1" as="geometry"><mxPoint as="offset"/></mxGeometry></mxCell><mxCell id="34" value="commit_queue" style="shape=cylinder3;whiteSpace=wrap;html=1;boundedLbl=1;backgroundOutline=1;size=15;rotation=90;labelPosition=center;verticalLabelPosition=middle;align=center;verticalAlign=middle;direction=east;flipH=0;horizontal=0;" vertex="1" parent="1"><mxGeometry x="1680" y="300" width="40" height="175" as="geometry"/></mxCell><mxCell id="35" value="request_queue" style="shape=cylinder3;whiteSpace=wrap;html=1;boundedLbl=1;backgroundOutline=1;size=15;rotation=90;labelPosition=center;verticalLabelPosition=middle;align=center;verticalAlign=middle;direction=east;flipH=0;horizontal=0;" vertex="1" parent="1"><mxGeometry x="1490" y="160" width="40" height="175" as="geometry"/></mxCell><mxCell id="36" value="response_queue" style="shape=cylinder3;whiteSpace=wrap;html=1;boundedLbl=1;backgroundOutline=1;size=15;rotation=90;labelPosition=center;verticalLabelPosition=middle;align=center;verticalAlign=middle;direction=east;flipH=0;horizontal=0;" vertex="1" parent="1"><mxGeometry x="1690" y="160" width="40" height="175" as="geometry"/></mxCell><mxCell id="39" value="KAFKA" style="shape=cylinder3;whiteSpace=wrap;html=1;boundedLbl=1;backgroundOutline=1;size=15;horizontal=1;verticalAlign=top;" vertex="1" parent="1"><mxGeometry x="2140" y="205" width="200" height="170" as="geometry"/></mxCell><mxCell id="40" value="Topic: {prefix}.{database_name}.{collection_name}" style="shape=cylinder3;whiteSpace=wrap;html=1;boundedLbl=1;backgroundOutline=1;size=15;rotation=90;labelPosition=center;verticalLabelPosition=middle;align=center;verticalAlign=middle;direction=east;flipH=0;horizontal=0;" vertex="1" parent="1"><mxGeometry x="2195" y="240" width="70" height="175" as="geometry"/></mxCell><mxCell id="49" style="edgeStyle=orthogonalEdgeStyle;rounded=0;orthogonalLoop=1;jettySize=auto;html=1;exitX=0;exitY=0.5;exitDx=0;exitDy=0;entryX=0.5;entryY=0;entryDx=0;entryDy=0;entryPerimeter=0;" edge="1" parent="1" source="44" target="28"><mxGeometry relative="1" as="geometry"/></mxCell><mxCell id="70" value="save last token" style="edgeLabel;html=1;align=center;verticalAlign=middle;resizable=0;points=[];" vertex="1" connectable="0" parent="49"><mxGeometry x="0.006" relative="1" as="geometry"><mxPoint as="offset"/></mxGeometry></mxCell><mxCell id="44" value="&lt;div style=&quot;background-color:#2b2b2b;color:#a9b7c6&quot;&gt;&lt;pre style=&quot;font-family:'JetBrains Mono',monospace;font-size:9.8pt;&quot;&gt;&lt;pre style=&quot;font-family:'JetBrains Mono',monospace;font-size:9.8pt;&quot;&gt;&lt;pre style=&quot;font-family:'JetBrains Mono',monospace;font-size:9.8pt;&quot;&gt;&lt;div&gt;&lt;pre style=&quot;font-family:'JetBrains Mono',monospace;font-size:9.8pt;&quot;&gt;ProcessCommitEvent&lt;/pre&gt;&lt;/div&gt;&lt;/pre&gt;&lt;/pre&gt;&lt;/pre&gt;&lt;/div&gt;" style="rounded=0;whiteSpace=wrap;html=1;verticalAlign=top;" vertex="1" parent="1"><mxGeometry x="880" y="805" width="220" height="90" as="geometry"/></mxCell><mxCell id="48" style="edgeStyle=orthogonalEdgeStyle;rounded=0;orthogonalLoop=1;jettySize=auto;html=1;entryX=1;entryY=0.5;entryDx=0;entryDy=0;" edge="1" parent="1" source="45" target="44"><mxGeometry relative="1" as="geometry"/></mxCell><mxCell id="45" value="commit_queue" style="shape=cylinder3;whiteSpace=wrap;html=1;boundedLbl=1;backgroundOutline=1;size=15;rotation=90;labelPosition=center;verticalLabelPosition=middle;align=center;verticalAlign=middle;direction=east;flipH=0;horizontal=0;" vertex="1" parent="1"><mxGeometry x="1130" y="850" width="40" height="175" as="geometry"/></mxCell><mxCell id="51" value="request_queue" style="shape=cylinder3;whiteSpace=wrap;html=1;boundedLbl=1;backgroundOutline=1;size=15;rotation=90;labelPosition=center;verticalLabelPosition=middle;align=center;verticalAlign=middle;direction=east;flipH=0;horizontal=0;" vertex="1" parent="1"><mxGeometry x="950" y="840" width="40" height="175" as="geometry"/></mxCell><mxCell id="52" value="response_queue" style="shape=cylinder3;whiteSpace=wrap;html=1;boundedLbl=1;backgroundOutline=1;size=15;rotation=90;labelPosition=center;verticalLabelPosition=middle;align=center;verticalAlign=middle;direction=east;flipH=0;horizontal=0;" vertex="1" parent="1"><mxGeometry x="950" y="900" width="40" height="175" as="geometry"/></mxCell><mxCell id="53" value="task_id: int&lt;br&gt;token_mongo_client: MongoClient" style="rounded=0;whiteSpace=wrap;html=1;verticalAlign=top;align=left;" vertex="1" parent="1"><mxGeometry x="880" y="740" width="210" height="55" as="geometry"/></mxCell><mxCell id="56" value="&lt;div style=&quot;background-color:#2b2b2b;color:#a9b7c6&quot;&gt;&lt;pre style=&quot;font-family:'JetBrains Mono',monospace;font-size:9.8pt;&quot;&gt;&lt;div&gt;&lt;pre style=&quot;font-family:'JetBrains Mono',monospace;font-size:9.8pt;&quot;&gt;ProducerFlow&lt;/pre&gt;&lt;/div&gt;&lt;/pre&gt;&lt;/div&gt;" style="rounded=0;whiteSpace=wrap;html=1;verticalAlign=top;" vertex="1" parent="1"><mxGeometry x="1424" y="465" width="390" height="55" as="geometry"/></mxCell><mxCell id="62" value="&lt;div style=&quot;background-color:#2b2b2b;color:#a9b7c6&quot;&gt;&lt;pre style=&quot;font-family:'JetBrains Mono',monospace;font-size:9.8pt;&quot;&gt;&lt;div&gt;&lt;pre style=&quot;font-family:'JetBrains Mono',monospace;font-size:9.8pt;&quot;&gt;ProducerFlow&lt;/pre&gt;&lt;/div&gt;&lt;/pre&gt;&lt;/div&gt;" style="rounded=0;whiteSpace=wrap;html=1;verticalAlign=top;" vertex="1" parent="1"><mxGeometry x="1424" y="542.5" width="390" height="55" as="geometry"/></mxCell><mxCell id="63" value="&lt;div style=&quot;background-color:#2b2b2b;color:#a9b7c6&quot;&gt;&lt;pre style=&quot;font-family:'JetBrains Mono',monospace;font-size:9.8pt;&quot;&gt;&lt;div&gt;&lt;pre style=&quot;font-family:'JetBrains Mono',monospace;font-size:9.8pt;&quot;&gt;ProducerFlow&lt;/pre&gt;&lt;/div&gt;&lt;/pre&gt;&lt;/div&gt;" style="rounded=0;whiteSpace=wrap;html=1;verticalAlign=top;" vertex="1" parent="1"><mxGeometry x="1424" y="620" width="390" height="55" as="geometry"/></mxCell></root></mxGraphModel></diagram></mxfile>